<svg disply='none' xmlns="http://www.w3.org/2000/svg">
	<symbol id="logo"  viewBox="20 20 64 64" fill="none" >

		<path d="M45.8386 64.6677L20.5 20.9248L33.086 31.025L49.1741 58.8904L45.8386 64.6677Z" fill="#5E47FF"/>
		<path d="M69.6241 38.1848L44.4109 82.0002L46.8648 66.0502L62.9529 38.1848L69.6241 38.1848Z" fill="#5E47FF"/>
		<path d="M34.9431 31.104L85.4949 31.0316L70.4549 36.8813H38.2787L34.9431 31.104Z" fill="#5E47FF"/>
		<path d="M45.8386 64.6677L20.5 20.9248L33.086 31.025L49.1741 58.8904L45.8386 64.6677Z" fill="#5E47FF"/>
		<path d="M69.6241 38.1848L44.4109 82.0002L46.8648 66.0502L62.9529 38.1848L69.6241 38.1848Z" fill="#5E47FF"/>
		<g filter="url(#filter0_f_554_593)">
			<path d="M34.9431 31.104L85.4949 31.0316L70.4549 36.8813H38.2787L34.9431 31.104Z" fill="#5E47FF"/>
		</g>
		<path d="M50.0829 55.5891L59.6131 39.0823H40.5527L50.0829 55.5891Z" fill="#57E1FF"/>
		<g filter="url(#filter1_f_554_593)">
			<path d="M45.8386 64.6677L20.5 20.9248L33.086 31.025L49.1741 58.8904L45.8386 64.6677Z" fill="#5E47FF"/>
		</g>
		<g filter="url(#filter2_f_554_593)">
			<path d="M69.6241 38.1848L44.4109 82.0002L46.8648 66.0502L62.9529 38.1848L69.6241 38.1848Z" fill="#5E47FF"/>
		</g>
		<path d="M34.9431 31.104L85.4949 31.0316L70.4549 36.8813H38.2787L34.9431 31.104Z" fill="#5E47FF"/>
		<defs>
			<filter id="filter0_f_554_593" x="14.9431" y="11.0315" width="90.5518" height="45.8499" filterUnits="userSpaceOnUse" color-interpolation-filters="sRGB">
				<feFlood flood-opacity="0" result="BackgroundImageFix"/>
				<feBlend mode="normal" in="SourceGraphic" in2="BackgroundImageFix" result="shape"/>
				<feGaussianBlur stdDeviation="10" result="effect1_foregroundBlur_554_593"/>
			</filter>
			<filter id="filter1_f_554_593" x="0.5" y="0.924805" width="68.6742" height="83.7429" filterUnits="userSpaceOnUse" color-interpolation-filters="sRGB">
				<feFlood flood-opacity="0" result="BackgroundImageFix"/>
				<feBlend mode="normal" in="SourceGraphic" in2="BackgroundImageFix" result="shape"/>
				<feGaussianBlur stdDeviation="10" result="effect1_foregroundBlur_554_593"/>
			</filter>
			<filter id="filter2_f_554_593" x="24.4109" y="18.1848" width="65.2131" height="83.8154" filterUnits="userSpaceOnUse" color-interpolation-filters="sRGB">
				<feFlood flood-opacity="0" result="BackgroundImageFix"/>
				<feBlend mode="normal" in="SourceGraphic" in2="BackgroundImageFix" result="shape"/>
				<feGaussianBlur stdDeviation="10" result="effect1_foregroundBlur_554_593"/>
			</filter>
		</defs>
	</symbol>

	<symbol id="logo-active"  viewBox="20 20 64 64" fill="none" >

		<path d="M45.8386 64.6677L20.5 20.9248L33.086 31.025L49.1741 58.8904L45.8386 64.6677Z" fill="#57E1FF"/>
		<path d="M69.6241 38.1848L44.4109 82.0002L46.8648 66.0502L62.9529 38.1848L69.6241 38.1848Z" fill="#57E1FF"/>
		<path d="M34.9431 31.104L85.4949 31.0316L70.4549 36.8813H38.2787L34.9431 31.104Z" fill="#57E1FFF"/>
		<path d="M45.8386 64.6677L20.5 20.9248L33.086 31.025L49.1741 58.8904L45.8386 64.6677Z" fill="#57E1FF"/>
		<path d="M69.6241 38.1848L44.4109 82.0002L46.8648 66.0502L62.9529 38.1848L69.6241 38.1848Z" fill="#57E1FF"/>
		<g filter="url(#filter0_f_554_593)">
			<path d="M34.9431 31.104L85.4949 31.0316L70.4549 36.8813H38.2787L34.9431 31.104Z" fill="#57E1FF"/>
		</g>
		<path d="M50.0829 55.5891L59.6131 39.0823H40.5527L50.0829 55.5891Z" fill="#5E47FF"/>
		<g filter="url(#filter1_f_554_593)">
			<path d="M45.8386 64.6677L20.5 20.9248L33.086 31.025L49.1741 58.8904L45.8386 64.6677Z" fill="#57E1FF"/>
		</g>
		<g filter="url(#filter2_f_554_593)">
			<path d="M69.6241 38.1848L44.4109 82.0002L46.8648 66.0502L62.9529 38.1848L69.6241 38.1848Z" fill="#57E1FF"/>
		</g>
		<path d="M34.9431 31.104L85.4949 31.0316L70.4549 36.8813H38.2787L34.9431 31.104Z" fill="#57E1FF"/>
		<defs>
			<filter id="filter0_f_554_593" x="14.9431" y="11.0315" width="90.5518" height="45.8499" filterUnits="userSpaceOnUse" color-interpolation-filters="sRGB">
				<feFlood flood-opacity="0" result="BackgroundImageFix"/>
				<feBlend mode="normal" in="SourceGraphic" in2="BackgroundImageFix" result="shape"/>
				<feGaussianBlur stdDeviation="10" result="effect1_foregroundBlur_554_593"/>
			</filter>
			<filter id="filter1_f_554_593" x="0.5" y="0.924805" width="68.6742" height="83.7429" filterUnits="userSpaceOnUse" color-interpolation-filters="sRGB">
				<feFlood flood-opacity="0" result="BackgroundImageFix"/>
				<feBlend mode="normal" in="SourceGraphic" in2="BackgroundImageFix" result="shape"/>
				<feGaussianBlur stdDeviation="10" result="effect1_foregroundBlur_554_593"/>
			</filter>
			<filter id="filter2_f_554_593" x="24.4109" y="18.1848" width="65.2131" height="83.8154" filterUnits="userSpaceOnUse" color-interpolation-filters="sRGB">
				<feFlood flood-opacity="0" result="BackgroundImageFix"/>
				<feBlend mode="normal" in="SourceGraphic" in2="BackgroundImageFix" result="shape"/>
				<feGaussianBlur stdDeviation="10" result="effect1_foregroundBlur_554_593"/>
			</filter>
		</defs>
	</symbol>

	<symbol id="logo-text" width="80" height="34" viewBox="0 0 80 34" fill="none">
		<path d="M10.0865 18.0657H3.60328L0.219971 33.626H7.2035C12.2282 33.626 13.7197 30.8597 13.7373 28.6769C13.7527 26.7751 12.6731 25.9971 11.6539 25.6621L11.6872 25.4892C13.1162 25.1759 14.8503 24.0088 14.8697 21.61C14.8883 19.2975 13.0992 18.0657 10.0865 18.0657ZM4.82327 30.4491L5.50827 27.3586H8.26549C9.31941 27.3586 9.94401 27.7909 9.93676 28.6877C9.92925 29.617 9.21991 30.4491 7.72952 30.4491H4.82327ZM6.19397 24.1817L6.83517 21.2426H9.37948C10.4334 21.2426 11.0157 21.6424 11.0088 22.496C11.0016 23.3821 10.3351 24.1817 8.8128 24.1817H6.19397Z" fill="white"/>
		<path d="M16.8924 18.0657L13.509 33.626H24.6574L25.3979 30.2546H18.2949L20.9377 18.0657H16.8924Z" fill="white"/>
		<path d="M32.5235 18.0657L24.8952 33.3018L24.8287 33.626H28.6718L30.167 30.3842H34.7127L34.8036 33.626H38.487L38.5535 33.3018L37.5482 18.0657H32.5235ZM31.6838 27.1209L34.3059 21.4479H34.4762L34.622 27.1209H31.6838Z" fill="white"/>
		<path d="M46.2064 18.0657H41.8311L38.4478 33.626H43.8345C50.6157 33.626 52.8389 28.5689 52.8739 24.2466C52.9063 20.2376 50.2731 18.0657 46.2064 18.0657ZM43.1477 30.341L45.0834 21.3506H46.0521C47.9258 21.3506 48.9926 22.388 48.9766 24.3654C48.9533 27.2506 47.5018 30.341 44.3933 30.341H43.1477Z" fill="white"/>
		<path d="M55.1202 18.0657L51.7368 33.626H63.3406L64.0263 30.4491H56.3827L57.0569 27.3802H63.4869L64.1726 24.2034H57.7533L58.3946 21.2426H65.8892L66.5749 18.0657H55.1202Z" fill="white"/>
		<path d="M16.3256 0.0551758L15.6067 3.38335H20.014L17.3495 15.6155H21.3523L24.0167 3.38335H28.424L29.1429 0.0551758H16.3256Z" fill="white"/>
		<path d="M35.9275 0.0551758H29.6359L26.2526 15.6155H30.1702L31.4971 9.49941H31.71L34.8649 15.6155H38.8357L38.9022 15.2913L35.7232 9.52103C39.6009 9.19685 41.0348 6.96006 41.0567 4.24781C41.0784 1.56798 39.0999 0.0551758 35.9275 0.0551758ZM32.1163 6.64669L32.8678 3.23207H35.3695C36.5831 3.23207 37.2712 3.71833 37.2635 4.66924C37.2555 5.66337 36.5449 6.64669 34.7777 6.64669H32.1163Z" fill="white"/>
		<path d="M45.778 0.0551758L38.1497 15.2913L38.0832 15.6155H41.9263L43.4216 12.3737H47.9673L48.0582 15.6155H51.7416L51.8081 15.2913L50.8028 0.0551758H45.778ZM44.9384 9.11041L47.5604 3.43738H47.7308L47.8766 9.11041H44.9384Z" fill="white"/>
		<path d="M59.461 0.0551758H55.0856L51.7023 15.6155H57.089C63.8703 15.6155 66.0935 10.5584 66.1284 6.23607C66.1608 2.22713 63.5276 0.0551758 59.461 0.0551758ZM56.4023 12.3305L58.3379 3.34013H59.3067C61.1803 3.34013 62.2471 4.37748 62.2312 6.35494C62.2078 9.24008 60.7564 12.3305 57.6478 12.3305H56.4023Z" fill="white"/>
		<path d="M68.3747 0.0551758L64.9914 15.6155H76.5951L77.2808 12.4386H69.6373L70.3115 9.36975H76.7414L77.4271 6.19285H71.0078L71.6492 3.23207H79.1437L79.8294 0.0551758H68.3747Z" fill="white"/>
	</symbol>

	<symbol id="logo-text-active" width="80" height="34" viewBox="0 0 80 34" fill="none">
		<path d="M10.0865 18.0657H3.60328L0.219971 33.626H7.2035C12.2282 33.626 13.7197 30.8597 13.7373 28.6769C13.7527 26.7751 12.6731 25.9971 11.6539 25.6621L11.6872 25.4892C13.1162 25.1759 14.8503 24.0088 14.8697 21.61C14.8883 19.2975 13.0992 18.0657 10.0865 18.0657ZM4.82327 30.4491L5.50827 27.3586H8.26549C9.31941 27.3586 9.94401 27.7909 9.93676 28.6877C9.92925 29.617 9.21991 30.4491 7.72952 30.4491H4.82327ZM6.19397 24.1817L6.83517 21.2426H9.37948C10.4334 21.2426 11.0157 21.6424 11.0088 22.496C11.0016 23.3821 10.3351 24.1817 8.8128 24.1817H6.19397Z" fill="#57E1FF"/>
		<path d="M16.8924 18.0657L13.509 33.626H24.6574L25.3979 30.2546H18.2949L20.9377 18.0657H16.8924Z" fill="#57E1FF"/>
		<path d="M32.5235 18.0657L24.8952 33.3018L24.8287 33.626H28.6718L30.167 30.3842H34.7127L34.8036 33.626H38.487L38.5535 33.3018L37.5482 18.0657H32.5235ZM31.6838 27.1209L34.3059 21.4479H34.4762L34.622 27.1209H31.6838Z" fill="#57E1FF"/>
		<path d="M46.2064 18.0657H41.8311L38.4478 33.626H43.8345C50.6157 33.626 52.8389 28.5689 52.8739 24.2466C52.9063 20.2376 50.2731 18.0657 46.2064 18.0657ZM43.1477 30.341L45.0834 21.3506H46.0521C47.9258 21.3506 48.9926 22.388 48.9766 24.3654C48.9533 27.2506 47.5018 30.341 44.3933 30.341H43.1477Z" fill="#57E1FF"/>
		<path d="M55.1202 18.0657L51.7368 33.626H63.3406L64.0263 30.4491H56.3827L57.0569 27.3802H63.4869L64.1726 24.2034H57.7533L58.3946 21.2426H65.8892L66.5749 18.0657H55.1202Z" fill="#57E1FF"/>
		<path d="M16.3256 0.0551758L15.6067 3.38335H20.014L17.3495 15.6155H21.3523L24.0167 3.38335H28.424L29.1429 0.0551758H16.3256Z" fill="#57E1FF"/>
		<path d="M35.9275 0.0551758H29.6359L26.2526 15.6155H30.1702L31.4971 9.49941H31.71L34.8649 15.6155H38.8357L38.9022 15.2913L35.7232 9.52103C39.6009 9.19685 41.0348 6.96006 41.0567 4.24781C41.0784 1.56798 39.0999 0.0551758 35.9275 0.0551758ZM32.1163 6.64669L32.8678 3.23207H35.3695C36.5831 3.23207 37.2712 3.71833 37.2635 4.66924C37.2555 5.66337 36.5449 6.64669 34.7777 6.64669H32.1163Z" fill="#57E1FF"/>
		<path d="M45.778 0.0551758L38.1497 15.2913L38.0832 15.6155H41.9263L43.4216 12.3737H47.9673L48.0582 15.6155H51.7416L51.8081 15.2913L50.8028 0.0551758H45.778ZM44.9384 9.11041L47.5604 3.43738H47.7308L47.8766 9.11041H44.9384Z" fill="#57E1FF"/>
		<path d="M59.461 0.0551758H55.0856L51.7023 15.6155H57.089C63.8703 15.6155 66.0935 10.5584 66.1284 6.23607C66.1608 2.22713 63.5276 0.0551758 59.461 0.0551758ZM56.4023 12.3305L58.3379 3.34013H59.3067C61.1803 3.34013 62.2471 4.37748 62.2312 6.35494C62.2078 9.24008 60.7564 12.3305 57.6478 12.3305H56.4023Z" fill="#57E1FF"/>
		<path d="M68.3747 0.0551758L64.9914 15.6155H76.5951L77.2808 12.4386H69.6373L70.3115 9.36975H76.7414L77.4271 6.19285H71.0078L71.6492 3.23207H79.1437L79.8294 0.0551758H68.3747Z" fill="#57E1FF"/>
	</symbol>

	<symbol id='slide-arrow'  viewBox="0 0 11 20" fill="none">
		<path d="M5.71429 2L10 6.5M5.71429 2L1 6.5M5.71429 2V25" stroke="#35FF9E" stroke-width="2"/>
	</symbol>


	<symbol id='slide-icon'  viewBox="0 0 111 161" >
		<g opacity="0.15">
			<path d="M63.4329 116.829L4.96763e-05 7.32201L31.5081 32.6069L71.7832 102.365L63.4329 116.829Z"/>
			<path d="M122.979 50.5303L59.8597 160.218L66.003 120.289L106.278 50.5303L122.979 50.5303Z"/>
			<path d="M74.058 94.1007L97.9159 52.7775H50.2L74.058 94.1007Z" />
			<path d="M36.1579 32.8049L162.71 32.6237L125.058 47.2681L44.5082 47.2681L36.1579 32.8049Z"/>
		</g>
	</symbol>

	<symbol id='check' width="12" height="12" viewBox="0 0 12 12" fill="none">
		<g clip-path="url(#clip0_171_354)">
			<path d="M2 6.5625L5.71231 10.2748L10.9623 2.39982" stroke="white" stroke-width="1.4" stroke-linecap="round" stroke-linejoin="round"/>
		</g>
		<defs>
			<clipPath id="clip0_171_354">
			<rect width="12" height="12" fill="white"/>
			</clipPath>
		</defs>
	</symbol>

	<symbol id='card-dropdown-arrow' width="24" height="24" viewBox="0 0 24 24" fill="none">
		<path d="M6 9.5L12 15.5L18 9.5"  stroke-width="1.4" stroke-linecap="round" stroke-linejoin="round"/>
	</symbol>

	<symbol id='copy-trading' width="56" height="56" viewBox="0 0 56 56" fill="none">
		<rect x="3" y="3" width="33" height="33" rx="4" fill="#6A54FF"/>
		<rect x="3" y="3" width="33" height="33" rx="4" fill="#6A54FF"/>
		<rect x="20" y="20" width="33" height="33" rx="4" fill="#57E1FF"/>
		<path opacity="0.5" d="M20 24C20 21.7909 21.7909 20 24 20H36V32C36 34.2091 34.2091 36 32 36H24C21.7909 36 20 34.2091 20 32V24Z" fill="white"/>
		<rect x="3" y="3" width="33" height="33" rx="4" stroke="#030718" stroke-width="1.5"/>
		<rect x="20" y="20" width="33" height="33" rx="4" stroke="#030718" stroke-width="1.5"/>
	</symbol>

	<symbol id='deals' width="56" height="56" viewBox="0 0 56 56" fill="none">
		<path d="M3 10C3 7.79086 4.79086 6 7 6H49C51.2091 6 53 7.79086 53 10V16H3V10Z" fill="#6A54FF"/>
		<path d="M29 18H53V46C53 48.2091 51.2091 50 49 50H29V18Z" fill="#6A54FF"/>
		<path d="M3 18H27V50H7C4.79086 50 3 48.2091 3 46V18Z" fill="#57E1FF"/>
		<path d="M17.5 40L11.5 34L17.5 28" stroke="black" stroke-width="2" stroke-linecap="round" stroke-linejoin="round"/>
		<circle cx="8" cy="11" r="2" fill="#ABF0FF"/>
		<circle cx="14" cy="11" r="2" fill="#ABF0FF"/>
		<circle cx="20" cy="11" r="2" fill="#ABF0FF"/>
	</symbol>

	<symbol id='height-profit' width="56" height="56" viewBox="0 0 56 56" fill="none" xmlns="http://www.w3.org/2000/svg">
		<path d="M4 16.88C4 14.8358 5.54131 13.1206 7.57387 12.9028L39.5739 9.47423C41.9381 9.22092 44 11.0737 44 13.4515V31.12C44 33.1642 42.4587 34.8794 40.4261 35.0972L8.42614 38.5258C6.0619 38.7791 4 36.9263 4 34.5485V16.88Z" fill="#6A54FF"/>
		<circle cx="27" cy="14" r="5" fill="#ABF0FF"/>
		<circle cx="39" cy="5" r="5" fill="#ABF0FF"/>
		<rect x="3" y="15" width="50" height="38" rx="5" fill="#57E1FF" stroke="#030718" stroke-width="2"/>
		<circle cx="45" cy="34" r="3" fill="#030718"/>
	</symbol>

	<symbol id='own-trade-cource' width="56" height="56" viewBox="0 0 56 56" fill="none">
		<g clip-path="url(#clip0_137_9491)">
		<rect x="-28" y="14" width="34" height="28" rx="4" fill="#6A54FF"/>
		<rect x="50" y="14" width="34" height="28" rx="4" fill="#6A54FF"/>
		<rect x="8" y="12" width="40" height="32" rx="4" fill="#57E1FF"/>
		<path d="M24.8474 34.6843L34.2369 29.3307C34.9431 28.9154 35.2963 28.7078 35.4287 28.4447C35.5703 28.1634 35.5711 27.8319 35.431 27.5499C35.2999 27.2862 34.9455 27.0754 34.2369 26.6539L34.2369 26.6539L24.8474 21.3003L24.8082 21.2786C24.0863 20.8787 23.7254 20.6788 23.4298 20.6996C23.1168 20.7216 22.8323 20.8892 22.6614 21.1523C22.5 21.4008 22.5 21.8134 22.5 22.6387L22.5 22.6387L22.5 33.3459C22.5 34.1755 22.5 34.5902 22.6622 34.8392C22.8339 35.1026 23.1195 35.2699 23.4333 35.2909C23.7298 35.3107 24.0916 35.1079 24.8152 34.7023L24.8474 34.6843Z" fill="black"/>
		</g>
		<defs>
		<clipPath id="clip0_137_9491">
		<rect width="56" height="56" fill="white"/>
		</clipPath>
		</defs>
	</symbol>


	<symbol id='strong-env' width="54" height="54" viewBox="0 0 54 54" fill="none">
		<path fill-rule="evenodd" clip-rule="evenodd" d="M13.8517 12.4377C12.6438 11.2298 12.6786 9.24013 14.0841 8.26914C16.6794 6.47613 19.6657 5.20861 22.889 4.62036C24.569 4.31377 25.9998 5.69635 25.9998 7.40407V17.3431C25.9998 20.0158 22.7683 21.3543 20.8784 19.4644L13.8517 12.4377ZM10.9784 10.8482C10.9348 10.8915 10.8913 10.935 10.848 10.9786L10.9784 10.8482ZM12.4375 13.8519C11.2296 12.644 9.23995 12.6788 8.26896 14.0843C6.47595 16.6796 5.20844 19.6658 4.62019 22.8892C4.31359 24.5691 5.69617 25.9999 7.4039 25.9999H17.3429C20.0156 25.9999 21.3541 22.7685 19.4642 20.8786L12.4375 13.8519ZM4.24976 26.9999L4.25002 26.8891L4.25002 27.1108L4.24976 26.9999ZM12.4375 40.1479C11.2296 41.3559 9.23995 41.3211 8.26896 39.9156C6.47595 37.3203 5.20844 34.334 4.62019 31.1107C4.31359 29.4307 5.69617 27.9999 7.4039 27.9999H17.3429C20.0156 27.9999 21.3541 31.2313 19.4642 33.1212L12.4375 40.1479ZM10.8482 43.0215C10.8914 43.065 10.9347 43.1083 10.9782 43.1514L10.8482 43.0215ZM13.8517 41.5622C12.6438 42.7701 12.6786 44.7597 14.0841 45.7307C16.6794 47.5237 19.6657 48.7912 22.889 49.3795C24.569 49.6861 25.9998 48.3035 25.9998 46.5958V36.6568C25.9998 33.9841 22.7683 32.6456 20.8784 34.5355L13.8517 41.5622ZM34.5353 20.8786C32.6454 22.7685 33.9839 25.9999 36.6566 25.9999H46.5956C48.3033 25.9999 49.6859 24.5691 49.3793 22.8892C48.7911 19.6658 47.5236 16.6796 45.7305 14.0842C44.7596 12.6788 42.7699 12.644 41.562 13.8519L34.5353 20.8786ZM40.1478 12.4377C41.3557 11.2298 41.3209 9.24013 39.9154 8.26914C37.3201 6.47613 34.3338 5.20861 31.1105 4.62036C29.4305 4.31377 27.9998 5.69635 27.9998 7.40408V17.3431C27.9998 20.0158 31.2312 21.3543 33.1211 19.4644L40.1478 12.4377ZM45.7305 39.9156C44.7596 41.3211 42.7699 41.3559 41.562 40.1479L34.5353 33.1212C32.6454 31.2314 33.9839 27.9999 36.6566 27.9999H46.5956C48.3033 27.9999 49.6859 29.4307 49.3793 31.1107C48.7911 34.334 47.5236 37.3202 45.7305 39.9156ZM33.1211 34.5355C31.2312 32.6456 27.9998 33.9841 27.9998 36.6568V46.5958C27.9998 48.3035 29.4305 49.6861 31.1105 49.3795C34.3338 48.7912 37.3201 47.5237 39.9154 45.7307C41.3209 44.7597 41.3557 42.7701 40.1478 41.5622L33.1211 34.5355Z" fill="#6A54FF"/>
		<circle cx="26.9998" cy="4.25" r="3.75" fill="#57E1FF" stroke="black"/>
		<circle cx="26.9998" cy="49.75" r="3.75" fill="#57E1FF" stroke="black"/>
		<circle cx="10.9131" cy="10.9135" r="3.75" transform="rotate(-45 10.9131 10.9135)" fill="#57E1FF" stroke="black"/>
		<circle cx="43.0865" cy="43.0865" r="3.75" transform="rotate(-45 43.0865 43.0865)" fill="#57E1FF" stroke="black"/>
		<circle cx="4.25" cy="27" r="3.75" transform="rotate(-90 4.25 27)" fill="#57E1FF" stroke="black"/>
		<circle cx="49.7498" cy="27" r="3.75" transform="rotate(-90 49.7498 27)" fill="#57E1FF" stroke="black"/>
		<circle cx="10.9132" cy="43.0866" r="3.75" transform="rotate(-135 10.9132 43.0866)" fill="#57E1FF" stroke="black"/>
		<circle cx="43.0865" cy="10.9135" r="3.75" transform="rotate(-135 43.0865 10.9135)" fill="#57E1FF" stroke="black"/>
	</symbol>


</svg>

